<svg xmlns="http://www.w3.org/2000/svg" viewBox="0 0 64 64" role="img" aria-label="ASTU Smart Complaint Tracking favicon">
  <defs>
    <linearGradient id="bg" x1="0%" y1="0%" x2="100%" y2="100%">
      <stop offset="0%" stop-color="#6366F1" />
      <stop offset="100%" stop-color="#312E81" />
    </linearGradient>
  </defs>

  <rect x="4" y="4" width="56" height="56" rx="14" fill="url(#bg)" />

  <path d="M22 16h20a4 4 0 0 1 4 4v24a4 4 0 0 1-4 4H22a4 4 0 0 1-4-4V20a4 4 0 0 1 4-4z" fill="#FFFFFF" opacity="0.96" />
  <rect x="24" y="24" width="16" height="3.5" rx="1.75" fill="#3730A3" />
  <rect x="24" y="30.5" width="12" height="3.5" rx="1.75" fill="#4F46E5" />
  <circle cx="40.5" cy="40.5" r="7.5" fill="#10B981" />
  <path d="m37.3 40.6 2.1 2.2 4.1-4.7" fill="none" stroke="#FFFFFF" stroke-width="2.3" stroke-linecap="round" stroke-linejoin="round" />
</svg>
